<svg xmlns="http://www.w3.org/2000/svg" viewBox="0 0 1600 900" role="img" aria-label="Fundo com símbolo da Arkai Solutions">
  <defs>
    <linearGradient id="arkai" x1="0" y1="0" x2="1" y2="1">
      <stop offset="0" stop-color="#6c5cff" />
      <stop offset="1" stop-color="#25d6e6" />
    </linearGradient>
    <radialGradient id="halo">
      <stop offset="0" stop-color="#6c5cff" stop-opacity=".26" />
      <stop offset="1" stop-color="#6c5cff" stop-opacity="0" />
    </radialGradient>
    <pattern id="grid" width="64" height="64" patternUnits="userSpaceOnUse">
      <path d="M64 0H0V64" fill="none" stroke="#7881b2" stroke-opacity=".11" stroke-width="1" />
    </pattern>
  </defs>
  <rect width="1600" height="900" fill="#06070d" />
  <rect width="1600" height="900" fill="url(#grid)" />
  <circle cx="1210" cy="438" r="455" fill="url(#halo)" />
  <g fill="none" stroke="url(#arkai)" stroke-opacity=".18" stroke-width="2">
    <path d="M480 724C704 520 946 527 1210 438" />
    <path d="M711 124C897 261 1004 316 1210 438" />
    <path d="M1532 188C1398 273 1324 349 1210 438" />
    <path d="M1536 728C1403 617 1358 535 1210 438" />
  </g>
  <g fill="url(#arkai)" opacity=".32">
    <circle cx="480" cy="724" r="8" />
    <circle cx="711" cy="124" r="8" />
    <circle cx="1532" cy="188" r="8" />
    <circle cx="1536" cy="728" r="8" />
  </g>
  <g transform="translate(858 120) scale(11)" fill="url(#arkai)" opacity=".24">
    <path d="M32 14 46 50H38.5L35.6 42H28.4L25.5 50H18ZM30.2 35.5H33.8L32 30Z" />
  </g>
</svg>
